<?xml version="1.0" encoding="UTF-8" standalone="no"?>
<!-- Created with Inkscape (http://www.inkscape.org/) -->

<svg
   width="960"
   height="480"
   viewBox="0 0 254 127"
   version="1.1"
   id="svg1"
   xml:space="preserve"
   xmlns="http://www.w3.org/2000/svg"
   xmlns:svg="http://www.w3.org/2000/svg"><defs
     id="defs1"><clipPath
       id="clip0_9045_20711"><rect
         width="485.91299"
         height="110"
         fill="#ffffff"
         transform="translate(86.7935,165)"
         id="rect9"
         x="0"
         y="0" /></clipPath></defs><g
     id="layer1"><g
       clip-path="url(#clip0_9045_20711)"
       id="g9"
       transform="matrix(0.39886145,0,0,0.39886145,-1.1056177,-27.690095)"
       style="fill:none"><path
         d="m 224.526,210.195 c -3.433,-2.301 -12.452,-3.283 -19.008,-1.524 -0.352,-6.501 -3.722,-11.98 -9.883,-16.761 l -2.279,-1.523 -1.52,2.286 c -2.988,4.513 -4.247,10.529 -3.802,15.998 0.352,3.37 1.528,7.156 3.802,9.904 -8.534,4.928 -16.402,3.809 -51.241,3.809 H 86.8063 c -0.1561,7.832 1.1076,22.894 10.7303,35.156 1.0639,1.356 2.2277,2.665 3.4934,3.927 7.824,7.799 19.645,13.518 37.321,13.533 26.967,0.025 50.07,-14.486 64.126,-49.567 4.624,0.074 16.832,0.825 22.807,-10.667 0.146,-0.193 1.52,-3.046 1.52,-3.046 l -2.278,-1.523 z M 121.91,203.034 h -15.125 v 15.056 h 15.125 z m 19.539,0 h -15.125 v 15.056 h 15.125 z m 19.541,0 h -15.125 v 15.056 h 15.125 z m 19.541,0 h -15.125 v 15.056 h 15.125 z m -78.162,0 H 87.2435 v 15.056 h 15.1255 z m 19.541,-19.016 h -15.125 v 15.056 h 15.125 z m 19.539,0 h -15.125 v 15.056 h 15.125 z m 19.541,0 h -15.125 v 15.056 h 15.125 z m 0,-19.018 h -15.125 v 15.056 h 15.125 z"
         fill="#1d63ed"
         id="path2" /><path
         d="m 571.768,251.895 c 0,3.925 -3.096,7.007 -7.123,7.007 -4.026,0 -7.166,-3.082 -7.166,-7.007 0,-3.925 3.18,-6.922 7.166,-6.922 3.987,0 7.123,3.082 7.123,6.922 z m -12.506,0 c 0,3.082 2.29,5.529 5.427,5.529 3.138,0 5.301,-2.447 5.301,-5.486 0,-3.038 -2.249,-5.572 -5.34,-5.572 -3.092,0 -5.386,2.491 -5.386,5.529 z m 4.284,3.631 h -1.611 v -6.922 c 0.633,-0.126 1.526,-0.211 2.669,-0.211 1.316,0 1.907,0.211 2.417,0.507 0.383,0.295 0.679,0.844 0.679,1.519 0,0.761 -0.594,1.352 -1.439,1.604 v 0.085 c 0.675,0.251 1.058,0.759 1.27,1.687 0.21,1.055 0.337,1.478 0.51,1.731 h -1.738 c -0.213,-0.253 -0.342,-0.885 -0.552,-1.689 -0.127,-0.759 -0.552,-1.097 -1.443,-1.097 h -0.762 v 2.788 z m 0.04,-3.925 h 0.762 c 0.891,0 1.611,-0.295 1.611,-1.012 0,-0.634 -0.464,-1.059 -1.484,-1.059 -0.423,0 -0.721,0.044 -0.889,0.089 z"
         fill="#1d63ed"
         id="path3" /><path
         d="m 298.56,181.844 c -0.998,-0.969 -2.195,-1.463 -3.629,-1.463 -1.435,0 -2.667,0.494 -3.627,1.463 -0.962,0.97 -1.432,2.214 -1.432,3.696 v 24.744 c -4.934,-4.06 -10.629,-6.108 -17.105,-6.108 -7.529,0 -13.966,2.707 -19.3,8.139 -5.334,5.413 -7.982,11.961 -7.982,19.642 0,7.68 2.667,14.21 7.982,19.642 5.334,5.413 11.755,8.138 19.3,8.138 7.544,0 13.894,-2.707 19.299,-8.138 5.334,-5.359 7.982,-11.906 7.982,-19.642 V 185.54 c 0,-1.482 -0.489,-2.726 -1.488,-3.696 z m -10.031,56.807 v 0.037 c -0.889,2.103 -2.105,3.95 -3.646,5.523 -1.54,1.591 -3.356,2.835 -5.423,3.767 -2.086,0.933 -4.299,1.391 -6.675,1.391 -2.375,0 -4.642,-0.458 -6.729,-1.391 -2.086,-0.932 -3.882,-2.176 -5.404,-3.749 -1.524,-1.573 -2.738,-3.419 -3.627,-5.523 -0.889,-2.122 -1.343,-4.37 -1.343,-6.749 0,-2.379 0.454,-4.628 1.343,-6.75 0.889,-2.122 2.105,-3.95 3.627,-5.523 1.524,-1.573 3.337,-2.816 5.404,-3.749 2.087,-0.932 4.318,-1.39 6.729,-1.39 2.411,0 4.589,0.458 6.675,1.39 2.086,0.933 3.883,2.176 5.423,3.768 1.541,1.591 2.757,3.438 3.646,5.523 0.889,2.103 1.343,4.335 1.343,6.712 0,2.377 -0.454,4.628 -1.343,6.713 z"
         fill="#1d63ed"
         id="path4" /><path
         d="m 523.952,221.294 c -1.324,-3.293 -3.342,-6.273 -5.988,-8.944 l -0.035,-0.019 c -5.388,-5.413 -11.83,-8.138 -19.3,-8.138 -7.47,0 -13.967,2.706 -19.301,8.138 -5.334,5.413 -7.98,11.962 -7.98,19.642 0,7.68 2.667,14.21 7.98,19.642 5.334,5.413 11.756,8.138 19.301,8.138 6.854,0 12.785,-2.248 17.83,-6.747 0.976,-1.024 1.47,-2.267 1.47,-3.714 0,-1.446 -0.471,-2.725 -1.435,-3.695 -0.959,-0.97 -2.175,-1.463 -3.626,-1.463 -1.268,0.037 -2.395,0.458 -3.354,1.299 -1.524,1.316 -3.175,2.323 -4.97,2.982 -1.797,0.659 -3.756,0.989 -5.894,0.989 -1.888,0 -3.702,-0.292 -5.423,-0.895 -1.726,-0.603 -3.338,-1.428 -4.772,-2.506 -1.453,-1.08 -2.702,-2.358 -3.773,-3.877 -1.07,-1.501 -1.886,-3.165 -2.429,-4.993 h 38.582 c 1.431,0 2.628,-0.493 3.627,-1.463 0.999,-0.97 1.489,-2.213 1.489,-3.695 0,-3.84 -0.675,-7.406 -1.995,-10.681 z m -41.739,5.523 c 0.527,-1.811 1.324,-3.475 2.395,-4.992 1.072,-1.501 2.34,-2.798 3.791,-3.878 1.47,-1.079 3.064,-1.902 4.824,-2.505 1.757,-0.603 3.551,-0.896 5.406,-0.896 1.855,0 3.646,0.293 5.384,0.896 1.743,0.603 3.342,1.426 4.772,2.505 1.453,1.08 2.721,2.359 3.791,3.878 1.087,1.5 1.907,3.164 2.469,4.992 h -32.834 z"
         fill="#1d63ed"
         id="path5" /><path
         d="m 571.366,207.668 c -0.908,-0.895 -2.051,-1.591 -3.429,-2.103 -1.378,-0.512 -2.884,-0.86 -4.534,-1.061 -1.633,-0.201 -3.175,-0.293 -4.606,-0.293 -3.25,0 -6.296,0.531 -9.16,1.592 -2.867,1.061 -5.515,2.578 -7.947,4.553 v -0.986 c 0,-1.426 -0.489,-2.634 -1.489,-3.64 -0.995,-1.005 -2.175,-1.517 -3.57,-1.517 -1.395,0 -2.632,0.512 -3.627,1.517 -0.999,1.006 -1.488,2.232 -1.488,3.64 v 45.229 c 0,1.426 0.489,2.634 1.488,3.639 0.995,1.006 2.192,1.517 3.627,1.517 1.434,0 2.592,-0.511 3.57,-1.517 1,-1.005 1.489,-2.232 1.489,-3.639 v -22.624 c 0,-2.414 0.454,-4.681 1.343,-6.803 0.889,-2.123 2.105,-3.95 3.645,-5.523 1.545,-1.573 3.358,-2.817 5.424,-3.714 2.086,-0.914 4.301,-1.372 6.679,-1.372 2.377,0 4.622,0.421 6.674,1.243 0.814,0.367 1.524,0.55 2.141,0.55 0.707,0 1.378,-0.129 1.994,-0.402 0.616,-0.274 1.162,-0.641 1.616,-1.115 0.453,-0.475 0.814,-1.024 1.086,-1.665 0.273,-0.621 0.419,-1.299 0.419,-2.03 0,-1.426 -0.454,-2.578 -1.36,-3.476 h 0.017 z"
         fill="#1d63ed"
         id="path6" /><path
         d="m 358.38,221.313 c -1.324,-3.274 -3.302,-6.273 -5.967,-8.979 -5.386,-5.414 -11.825,-8.139 -19.299,-8.139 -7.475,0 -13.966,2.707 -19.3,8.139 -5.334,5.413 -7.98,11.961 -7.98,19.642 0,7.68 2.667,14.21 7.98,19.642 5.334,5.413 11.755,8.138 19.3,8.138 7.545,0 13.894,-2.707 19.299,-8.138 5.334,-5.36 7.982,-11.906 7.982,-19.642 -0.037,-3.841 -0.708,-7.388 -2.013,-10.663 z m -9.504,17.338 v 0.037 c -0.889,2.104 -2.105,3.95 -3.646,5.523 -1.54,1.592 -3.356,2.835 -5.423,3.768 -2.067,0.932 -4.299,1.39 -6.675,1.39 -2.375,0 -4.642,-0.458 -6.728,-1.39 -2.087,-0.933 -3.883,-2.176 -5.405,-3.749 -1.524,-1.573 -2.738,-3.42 -3.627,-5.523 -0.889,-2.122 -1.343,-4.371 -1.343,-6.75 0,-2.379 0.454,-4.628 1.343,-6.75 0.889,-2.122 2.105,-3.95 3.627,-5.523 1.524,-1.573 3.337,-2.816 5.405,-3.749 2.086,-0.932 4.317,-1.39 6.728,-1.39 2.411,0 4.589,0.458 6.675,1.39 2.086,0.933 3.883,2.176 5.423,3.768 1.541,1.592 2.757,3.438 3.646,5.523 0.889,2.103 1.343,4.335 1.343,6.712 0,2.377 -0.454,4.628 -1.343,6.713 z"
         fill="#1d63ed"
         id="path7" /><path
         d="m 467.5,209.351 c 0,-0.694 -0.145,-1.353 -0.416,-1.975 -0.273,-0.622 -0.635,-1.187 -1.089,-1.664 -0.454,-0.475 -0.997,-0.86 -1.613,-1.115 -0.616,-0.255 -1.287,-0.402 -1.995,-0.402 -1.016,0 -1.923,0.257 -2.721,0.788 l -29.13,19.296 v -38.702 c 0,-1.463 -0.489,-2.688 -1.487,-3.695 -0.997,-1.005 -2.175,-1.517 -3.572,-1.517 -1.397,0 -2.63,0.512 -3.629,1.517 -0.997,1.005 -1.487,2.232 -1.487,3.695 v 68.95 c 0,1.426 0.49,2.653 1.487,3.676 0.997,1.024 2.194,1.536 3.629,1.536 1.434,0 2.594,-0.512 3.572,-1.536 0.998,-1.023 1.487,-2.25 1.487,-3.676 v -17.905 l 5.95,-3.969 22.51,25.733 c 0.908,0.895 2.051,1.334 3.41,1.334 0.708,0 1.378,-0.128 1.994,-0.402 0.617,-0.257 1.162,-0.64 1.614,-1.115 0.454,-0.474 0.816,-1.023 1.089,-1.664 0.273,-0.621 0.416,-1.299 0.416,-1.975 0,-1.353 -0.47,-2.561 -1.415,-3.62 l -20.951,-24.013 20.405,-13.497 c 1.305,-0.896 1.94,-2.267 1.94,-4.116 v 0.037 z"
         fill="#1d63ed"
         id="path8" /><path
         d="m 381.254,219.649 c 1.559,-1.573 3.375,-2.817 5.461,-3.714 2.086,-0.914 4.299,-1.372 6.674,-1.372 2.141,0 4.119,0.367 5.951,1.097 1.813,0.731 3.556,1.811 5.204,3.218 0.979,0.785 2.087,1.187 3.319,1.187 1.47,0 2.667,-0.493 3.629,-1.481 0.962,-0.989 1.432,-2.232 1.432,-3.714 0,-1.482 -0.581,-2.854 -1.759,-3.913 -5.007,-4.499 -10.936,-6.749 -17.776,-6.749 -7.528,0 -13.965,2.706 -19.299,8.138 -5.334,5.413 -7.98,11.962 -7.98,19.642 0,7.68 2.667,14.21 7.98,19.642 5.334,5.413 11.755,8.138 19.299,8.138 6.821,0 12.752,-2.248 17.776,-6.75 1.07,-1.096 1.616,-2.358 1.616,-3.821 0,-1.463 -0.473,-2.725 -1.433,-3.695 -0.962,-0.97 -2.175,-1.463 -3.627,-1.463 -1.232,0.037 -2.304,0.402 -3.21,1.096 -1.632,1.426 -3.337,2.487 -5.169,3.2 -1.814,0.713 -3.791,1.061 -5.95,1.061 -2.376,0 -4.589,-0.458 -6.675,-1.372 -2.086,-0.914 -3.9,-2.157 -5.461,-3.712 -1.559,-1.554 -2.794,-3.419 -3.683,-5.523 -0.889,-2.122 -1.343,-4.389 -1.343,-6.803 0,-2.415 0.454,-4.682 1.343,-6.804 0.889,-2.122 2.121,-3.95 3.683,-5.523 v -0.018 z"
         fill="#1d63ed"
         id="path9" /></g></g></svg>
